<?xml version="1.0" encoding="UTF-8"?>
<svg xmlns="http://www.w3.org/2000/svg" viewBox="0 0 180.61 180.61">
  <defs>
    <style>
      .cls-1 {
        fill: #5e5e5e;
      }

      .cls-2 {
        fill: #191919;
      }
    </style>
  </defs>
  <g id="Calque_1" data-name="Calque 1">
    <rect class="cls-1" x="-4162.15" y="-7275.28" width="11348.31" height="10968.82"/>
  </g>
  <g id="Calque_3" data-name="Calque 3">
    <path class="cls-2" d="M171.61,3.41c3.08,0,5.59,2.51,5.59,5.59v162.61c0,3.08-2.51,5.59-5.59,5.59H9c-3.08,0-5.59-2.51-5.59-5.59V9c0-3.08,2.51-5.59,5.59-5.59h162.61M171.61,0H9C4.03,0,0,4.03,0,9v162.61c0,4.97,4.03,9,9,9h162.61c4.97,0,9-4.03,9-9V9c0-4.97-4.03-9-9-9h0Z"/>
    <path class="cls-2" d="M107.09,78.32v2.4l8.94,6.7c1.15.86,1.83,2.21,1.83,3.65v20.73c0,3.29.57,5.45,1.75,6.62,1.17,1.15,3.34,1.72,6.62,1.72,1.04,0,2.06-.05,3-.13.65-.05,1.3-.13,1.98-.26v12.78c-1.41.21-2.92.34-4.51.42-4.75.21-9.31.18-13.4-.44-2.43-.37-4.59-1.1-6.44-2.16-1.8-1.04-3.23-2.56-4.3-4.49-1.04-1.96-1.59-4.59-1.59-7.77v-36.4c0-1.85-1.51-3.36-3.36-3.36h-31.06v2.4l8.97,6.7c1.15.86,1.83,2.21,1.83,3.64v20.74c0,3.29.57,5.45,1.75,6.62,1.15,1.15,3.31,1.72,6.6,1.72,1.04,0,2.06-.05,3-.13.65-.05,1.3-.13,2.01-.26v12.78c-1.41.21-2.92.34-4.51.42-4.77.21-9.34.18-13.4-.44-2.45-.37-4.59-1.1-6.44-2.16-1.83-1.04-3.26-2.5-4.33-4.49-1.04-1.96-1.56-4.56-1.56-7.77v-36.38c0-1.86-1.53-3.39-3.39-3.39h-14.45v-10.87h21.33c1.44,0,2.61-1.17,2.61-2.61v-17.29h10.8v16.51c0,1.87,1.52,3.39,3.39,3.39h23.73c1.44,0,2.61-1.17,2.61-2.61v-17.29h10.8v16.51c0,1.87,1.52,3.39,3.39,3.39h16.77v10.87h-30.93Z"/>
  </g>
</svg>